<?xml version="1.0" encoding="iso-8859-1"?>
<!-- Generator: Adobe Illustrator 19.0.0, SVG Export Plug-In . SVG Version: 6.00 Build 0)  -->
<svg version="1.1" id="Capa_1" xmlns="http://www.w3.org/2000/svg" xmlns:xlink="http://www.w3.org/1999/xlink" x="0px" y="0px"
	 viewBox="0 0 511.999 511.999" style="enable-background:new 0 0 511.999 511.999;" xml:space="preserve">
<g>
	<g>
		<path d="M502.56,202.731l-52.853-5.867c-3.798-12.456-8.799-24.513-14.933-36l33.216-41.515c3.39-4.243,3.05-10.356-0.789-14.197
			l-60.352-60.288c-3.841-3.839-9.954-4.179-14.197-0.789L351.136,77.28c-11.487-6.134-23.544-11.136-36-14.933l-5.867-52.853
			C308.671,4.089,304.104,0,298.667,0h-85.333c-5.437,0-10.005,4.089-10.603,9.493l-5.867,52.8
			c-12.456,3.798-24.513,8.799-36,14.933L119.349,44.01c-4.243-3.39-10.356-3.05-14.197,0.789L44.8,105.152
			c-3.836,3.844-4.171,9.957-0.779,14.197l33.259,41.515c-6.134,11.487-11.136,23.544-14.933,36l-52.853,5.867
			C4.089,203.329,0,207.896,0,213.333v85.333c0,5.437,4.089,10.005,9.493,10.603l52.8,5.867c3.798,12.456,8.799,24.513,14.933,36
			L44.01,392.651c-3.39,4.243-3.05,10.356,0.789,14.197l60.352,60.352c3.858,3.82,9.97,4.132,14.197,0.725l41.515-33.205
			c11.487,6.134,23.544,11.136,36,14.933l5.867,52.853c0.598,5.404,5.165,9.494,10.603,9.493h85.333
			c5.419,0.003,9.979-4.057,10.603-9.44l5.867-52.853c12.456-3.798,24.513-8.799,36-14.933l41.515,33.216
			c4.243,3.39,10.356,3.05,14.197-0.789l60.288-60.352c3.839-3.841,4.179-9.954,0.789-14.197l-33.205-41.515
			c6.134-11.487,11.136-23.544,14.933-36l52.853-5.867c5.404-0.598,9.494-5.165,9.493-10.603v-85.333
			C512.003,207.914,507.943,203.354,502.56,202.731z M490.669,289.12h-0.002l-50.421,5.611c-4.374,0.486-8,3.608-9.131,7.861
			c-4.108,15.505-10.268,30.392-18.315,44.267c-2.211,3.808-1.855,8.583,0.896,12.021l31.712,39.637l-46.837,46.837l-39.637-31.712
			c-3.438-2.751-8.213-3.107-12.021-0.896c-13.875,8.047-28.762,14.206-44.267,18.315c-4.253,1.13-7.375,4.757-7.861,9.131
			l-5.611,50.475h-66.24l-5.664-50.475c-0.486-4.374-3.608-8-7.861-9.131c-15.505-4.108-30.392-10.268-44.267-18.315
			c-3.808-2.211-8.583-1.855-12.021,0.896l-39.637,31.712l-46.837-46.837l31.712-39.584c2.751-3.438,3.107-8.213,0.896-12.021
			c-8.047-13.875-14.206-28.762-18.315-44.267c-1.13-4.253-4.757-7.375-9.131-7.861l-50.475-5.611v-66.24l50.475-5.664
			c4.374-0.486,8-3.608,9.131-7.861c4.108-15.505,10.268-30.392,18.315-44.267c2.211-3.808,1.855-8.583-0.896-12.021l-31.712-39.637
			l46.837-46.837l39.691,31.712c3.438,2.751,8.213,3.107,12.021,0.896c13.875-8.047,28.762-14.206,44.267-18.315
			c4.253-1.13,7.375-4.757,7.861-9.131l5.611-50.475h66.187l5.611,50.475c0.486,4.374,3.608,8,7.861,9.131
			c15.505,4.108,30.392,10.268,44.267,18.315c3.808,2.211,8.583,1.855,12.021-0.896l39.637-31.712l46.837,46.891l-31.712,39.637
			c-2.751,3.438-3.107,8.213-0.896,12.021c8.047,13.875,14.206,28.762,18.315,44.267c1.13,4.253,4.757,7.375,9.131,7.861
			l50.475,5.611V289.12z"/>
	</g>
</g>
<g>
	<g>
		<path d="M386.294,183.083c-40.272-71.974-131.263-97.675-203.237-57.404s-97.675,131.264-57.403,203.238
			c0.477,0.851,1.068,1.633,1.758,2.324c4.162,4.169,10.916,4.174,15.085,0.012l69.685-69.685L236.8,294.4
			c0.303,0.403,0.633,0.785,0.99,1.141c4.166,4.166,10.919,4.166,15.085,0L320,228.416v38.251h21.333v-64h-0.002
			c0-5.89-4.774-10.665-10.664-10.667h-64v21.333h38.251l-58.432,58.432l-24.619-32.832c-1.85-2.484-4.688-4.041-7.776-4.267
			c-3.085-0.187-6.103,0.95-8.299,3.125L137.973,305.6c-18.338-43.645-11.038-93.853,18.971-130.468
			c44.724-54.571,125.219-62.554,179.791-17.829c54.571,44.724,62.554,125.219,17.829,179.791c-4.122,5.029-8.549,9.66-13.23,13.893
			V288H320v78.569c-6.836,3.975-13.98,7.277-21.333,9.891v-67.127h-21.333v72.699c-7.045,1.204-14.183,1.82-21.333,1.837v-42.536
			h-21.333v40.803c-7.21-1.199-14.348-3.027-21.333-5.485V320H192v46.834c-5.962-3.443-11.728-7.405-17.227-11.911l-13.557,16.48
			c26.724,21.924,60.218,33.914,94.784,33.931c25.523-0.004,50.618-6.55,72.891-19.013
			C400.865,346.05,426.566,255.057,386.294,183.083z"/>
	</g>
</g>
<g>
</g>
<g>
</g>
<g>
</g>
<g>
</g>
<g>
</g>
<g>
</g>
<g>
</g>
<g>
</g>
<g>
</g>
<g>
</g>
<g>
</g>
<g>
</g>
<g>
</g>
<g>
</g>
<g>
</g>
</svg>
