<?xml version="1.0" encoding="iso-8859-1"?>
<!-- Generator: Adobe Illustrator 19.0.0, SVG Export Plug-In . SVG Version: 6.00 Build 0)  -->
<svg version="1.1" id="Capa_1" xmlns="http://www.w3.org/2000/svg" xmlns:xlink="http://www.w3.org/1999/xlink" x="0px" y="0px"
	 viewBox="0 0 512 512" style="enable-background:new 0 0 512 512;" xml:space="preserve">
<g>
	<g>
		<path d="M508.117,369.113c-5.162-12.42-14.851-22.086-27.283-27.218c-12.432-5.132-26.117-5.116-38.539,0.046l-1.776,0.738
			c-1.635-1.798-3.395-3.76-5.257-5.837c-24.923-27.795-66.115-73.73-117.744-80.642v-81.523
			C398.374,167.7,462.042,99.67,462.042,17.038V0.757H445.76c-75.166,0-138.255,52.682-154.295,123.061
			c-28.326-42.953-76.998-71.36-132.188-71.36h-16.28v16.281c0,82.633,63.669,150.664,144.523,157.64v28.803
			c-54.792,2.461-93.727,27.502-108.235,38.431c-17.064-2.95-34.655-1.046-51.009,5.749l-29.76,12.369v-31.735H0v201.288h98.516
			v-35.566l145.353,58.712c11.279,4.544,23.107,6.814,34.933,6.814c12.162,0,24.318-2.401,35.867-7.201l166.277-69.107
			c12.42-5.162,22.086-14.852,27.218-27.283C513.295,395.22,513.279,381.534,508.117,369.113z M431.224,31.575
			c-5.711,50.372-40.73,91.99-87.537,107.348l58.414-61.101l-21.685-20.729l-54.962,57.491
			C341.948,70.058,382.489,37.099,431.224,31.575z M261.348,190.623c-46.805-15.358-81.824-56.976-87.535-107.348
			c48.735,5.526,89.276,38.484,105.769,83.009l-54.963-57.491l-21.685,20.729L261.348,190.623z M68.517,451.284H29.999v-141.29
			h38.518V451.284z M310.028,285.552c41.01,3.408,78.2,43.801,101.119,69.335l-79.257,32.94c0.104-6.695-1.128-13.415-3.714-19.844
			c-5.25-13.05-15.33-23.114-28.386-28.339l-84.229-33.716C235.858,294.81,268.841,282.136,310.028,285.552z M480.434,396.205
			c-2.075,5.025-5.982,8.942-11.003,11.028l-166.277,69.107c-15.465,6.43-32.541,6.522-48.062,0.269L98.516,413.364v-69.146
			l41.271-17.152c15.146-6.293,31.865-6.403,47.077-0.311l101.779,40.74c5.381,2.154,9.537,6.304,11.701,11.684
			c2.163,5.378,2.039,11.245-0.351,16.52c-1.466,3.239-3.701,5.98-6.425,8.056L291,404.821l0.204,0.491
			c-3.111,1.769-6.674,2.762-10.387,2.762c-2.607,0-5.199-0.498-7.689-1.473l-73.722-28.976l-10.975,27.919l73.738,28.982
			c6.007,2.353,12.281,3.546,18.646,3.546c9.723,0,19.029-2.791,26.979-7.746l146.011-60.684c5.021-2.086,10.553-2.093,15.578-0.02
			c5.025,2.075,8.942,5.982,11.028,11.003C482.502,385.648,482.508,391.18,480.434,396.205z"/>
	</g>
</g>
<g>
</g>
<g>
</g>
<g>
</g>
<g>
</g>
<g>
</g>
<g>
</g>
<g>
</g>
<g>
</g>
<g>
</g>
<g>
</g>
<g>
</g>
<g>
</g>
<g>
</g>
<g>
</g>
<g>
</g>
</svg>
